<?xml version="1.0" encoding="utf-8"?>
<!-- Generator: Adobe Illustrator 25.0.0, SVG Export Plug-In . SVG Version: 6.00 Build 0)  -->
<svg version="1.1" id="Layer_1" xmlns="http://www.w3.org/2000/svg" xmlns:xlink="http://www.w3.org/1999/xlink" x="0px" y="0px"
	 viewBox="0 0 184.3 50" style="enable-background:new 0 0 184.3 50;" xml:space="preserve">
<style type="text/css">
	.st0{display:none;enable-background:new    ;}
	.st1{font-family:'ArialMT';}
	.st2{font-size:45px;}
	.st3{fill:#F26724;}
	.st4{fill:#FFFFFF;}
	.st5{font-family:'AnonymicePowerline';}
	.st6{font-size:40px;}
</style>
<g>
	<path id="logo" class="st3" d="M24.7,5.8c10.6,0,19.2,8.6,19.2,19.2s-8.6,19.2-19.2,19.2S5.5,35.6,5.5,25S14.1,5.8,24.7,5.8z
		 M24.7,1c-13.3,0-24,10.7-24,24s10.7,24,24,24s24-10.7,24-24S37.9,1,24.7,1z M24.7,15.4c5.3,0,9.6,4.3,9.6,9.6s-4.3,9.6-9.6,9.6
		s-9.6-4.3-9.6-9.6C15.1,19.7,19.4,15.4,24.7,15.4z M24.7,10.6c-8,0-14.4,6.4-14.4,14.4s6.4,14.4,14.4,14.4S39.1,33,39.1,25
		S32.6,10.6,24.7,10.6z M24.7,20.2c-2.7,0-4.8,2.1-4.8,4.8s2.1,4.8,4.8,4.8s4.8-2.1,4.8-4.8S27.3,20.2,24.7,20.2z"/>
	<text transform="matrix(0.9865 0 0 1 55.0137 37.5146)" class="st4 st5 st6">Мишень</text>
</g>
</svg>
